<svg width="561" height="46" viewBox="0 0 561 46" fill="none" xmlns="http://www.w3.org/2000/svg">
<g id="flymenu-reactjs">
<path d="M13.1289 31.2646C14.4473 31.2646 15.4238 30.7438 16.0586 29.7021C16.7096 28.6442 17.0352 26.6016 17.0352 23.5742C17.0352 20.2702 16.6771 17.9102 15.9609 16.4941C15.2611 15.0781 14.1462 14.3701 12.6162 14.3701C11.2979 14.3701 10.3132 14.8991 9.66211 15.957C9.02734 16.9987 8.70996 19.0332 8.70996 22.0605C8.70996 25.3646 9.0599 27.7246 9.75977 29.1406C10.4759 30.5566 11.599 31.2646 13.1289 31.2646ZM11.9814 35.4883C8.33561 35.4883 5.58496 34.5361 3.72949 32.6318C1.8903 30.7275 0.970703 27.9688 0.970703 24.3555C0.970703 19.847 2.08561 16.3558 4.31543 13.8818C6.56152 11.3916 9.71094 10.1465 13.7637 10.1465C17.4095 10.1465 20.152 11.0986 21.9912 13.0029C23.8304 14.9072 24.75 17.666 24.75 21.2793C24.75 25.7878 23.6351 29.2871 21.4053 31.7773C19.1755 34.2513 16.0342 35.4883 11.9814 35.4883ZM42.1084 31.6553C42.3851 32.1924 42.5234 32.7946 42.5234 33.4619C42.5234 34.0316 42.4095 34.4303 42.1816 34.6582C41.9538 34.8861 41.4899 35 40.79 35H28.0947C27.818 34.3164 27.6797 33.6735 27.6797 33.0713C27.6797 32.5667 27.7936 32.2087 28.0215 31.9971C28.2493 31.7692 28.6156 31.6553 29.1201 31.6553H31.1221C31.2035 29.5719 31.2441 27.3503 31.2441 24.9902V14.4922H28.0947C27.8018 13.7923 27.6553 13.0843 27.6553 12.3682C27.6553 11.8148 27.7611 11.4242 27.9727 11.1963C28.2005 10.9684 28.5749 10.8545 29.0957 10.8545H31.2441C31.3418 6.86686 32.3021 4.09993 34.125 2.55371C35.9642 0.991211 38.902 0.209961 42.9385 0.209961C45.2822 0.209961 46.9912 0.437826 48.0654 0.893555C49.1559 1.33301 49.7012 2.06543 49.7012 3.09082C49.7012 4.11621 49.2699 5.18229 48.4072 6.28906C45.1357 4.88932 42.735 4.18945 41.2051 4.18945C39.903 4.18945 39.0648 4.62077 38.6904 5.4834C38.3161 6.32975 38.1289 7.70508 38.1289 9.60938V10.8545H44.7451C45.0218 11.5055 45.1602 12.1973 45.1602 12.9297C45.1602 13.5482 45.0462 13.9632 44.8184 14.1748C44.5905 14.3864 44.151 14.4922 43.5 14.4922H38.1289V24.9902C38.1289 27.3503 38.1696 29.5719 38.251 31.6553H42.1084ZM62.5186 31.6553C62.7952 32.1924 62.9336 32.7946 62.9336 33.4619C62.9336 34.0316 62.8197 34.4303 62.5918 34.6582C62.3639 34.8861 61.9001 35 61.2002 35H48.5049C48.2282 34.3164 48.0898 33.6735 48.0898 33.0713C48.0898 32.5667 48.2038 32.2087 48.4316 31.9971C48.6595 31.7692 49.0257 31.6553 49.5303 31.6553H51.5322C51.6136 29.5719 51.6543 27.3503 51.6543 24.9902V14.4922H48.5049C48.2119 13.7923 48.0654 13.0843 48.0654 12.3682C48.0654 11.8148 48.1712 11.4242 48.3828 11.1963C48.6107 10.9684 48.985 10.8545 49.5059 10.8545H51.6543C51.752 6.86686 52.7122 4.09993 54.5352 2.55371C56.3743 0.991211 59.3122 0.209961 63.3486 0.209961C65.6924 0.209961 67.4014 0.437826 68.4756 0.893555C69.5661 1.33301 70.1113 2.06543 70.1113 3.09082C70.1113 4.11621 69.68 5.18229 68.8174 6.28906C65.5459 4.88932 63.1452 4.18945 61.6152 4.18945C60.3132 4.18945 59.4749 4.62077 59.1006 5.4834C58.7262 6.32975 58.5391 7.70508 58.5391 9.60938V10.8545H65.1553C65.432 11.5055 65.5703 12.1973 65.5703 12.9297C65.5703 13.5482 65.4564 13.9632 65.2285 14.1748C65.0007 14.3864 64.5612 14.4922 63.9102 14.4922H58.5391V24.9902C58.5391 27.3503 58.5798 29.5719 58.6611 31.6553H62.5186ZM81.0732 35.4883C76.5648 35.4883 73.4154 34.6582 71.625 32.998C69.8346 31.3216 68.9395 28.457 68.9395 24.4043C68.9395 19.847 70.1032 16.3314 72.4307 13.8574C74.7744 11.3835 78.2656 10.1465 82.9043 10.1465C85.3457 10.1465 87.0303 10.3581 87.958 10.7812C88.902 11.2044 89.3903 11.9124 89.4229 12.9053C89.4229 14.1748 89.0241 15.3304 88.2266 16.3721C85.5247 15.0374 83.3275 14.3701 81.6348 14.3701C79.9421 14.3701 78.6888 14.9723 77.875 16.1768C77.0775 17.3649 76.6787 19.4645 76.6787 22.4756C76.6787 25.4541 77.0693 27.6676 77.8506 29.1162C78.6481 30.5485 80.0885 31.2646 82.1719 31.2646C83.8646 31.2646 86.0374 30.638 88.6904 29.3848C89.374 30.3288 89.7158 31.3216 89.7158 32.3633C89.7158 33.4212 88.8532 34.2106 87.1279 34.7314C85.4027 35.236 83.3844 35.4883 81.0732 35.4883ZM108.393 33.1201C107.172 33.7386 105.78 34.292 104.218 34.7803C102.655 35.2523 101.182 35.4883 99.7988 35.4883C97.4388 35.4883 95.7054 34.943 94.5986 33.8525C93.5081 32.762 92.9629 31.2321 92.9629 29.2627C92.9629 26.512 93.9069 24.4694 95.7949 23.1348C97.6829 21.8001 100.661 21.1328 104.73 21.1328H107.392C107.245 18.6263 106.83 16.9173 106.146 16.0059C105.463 15.0781 104.438 14.6143 103.07 14.6143C102.322 14.6143 101.508 14.7119 100.629 14.9072C100.059 15.9814 99.7174 16.5511 99.6035 16.6162C99.5059 16.6813 98.9443 16.8278 97.9189 17.0557C96.9098 17.2835 96.1937 17.2103 95.7705 16.8359C95.3473 16.4616 94.916 15.8024 94.4766 14.8584C94.0534 13.9144 93.8418 13.1169 93.8418 12.4658C93.8418 12.0589 94.0046 11.7415 94.3301 11.5137C94.6719 11.2858 95.9089 11.0417 98.041 10.7812C100.173 10.5208 102.444 10.3906 104.853 10.3906C107.717 10.3906 109.963 10.887 111.591 11.8799C113.218 12.8564 114.032 14.7607 114.032 17.5928V24.0625C114.032 27.6595 114.187 29.873 114.496 30.7031C114.805 31.5169 115.359 31.8343 116.156 31.6553C116.4 32.111 116.522 32.5586 116.522 32.998C116.522 33.7305 116.083 34.292 115.204 34.6826C114.341 35.057 113.17 35.2441 111.688 35.2441C111.037 35.2441 110.525 35.1628 110.15 35C109.776 34.8372 109.19 34.2106 108.393 33.1201ZM107.392 25.0146C106.22 24.7705 105.032 24.6484 103.827 24.6484C102.46 24.6484 101.483 24.8763 100.897 25.332C100.312 25.7878 100.019 26.6504 100.019 27.9199C100.019 29.0267 100.303 29.8649 100.873 30.4346C101.459 30.988 102.305 31.2646 103.412 31.2646C104.291 31.2646 105.064 31.0775 105.731 30.7031C106.415 30.3288 106.863 29.7998 107.074 29.1162C107.286 28.4163 107.392 27.513 107.392 26.4062V25.0146ZM128.681 13.2227C130.455 12.1159 132.156 11.3346 133.783 10.8789C135.427 10.4069 136.802 10.1709 137.909 10.1709C140.204 10.1709 141.905 10.6755 143.012 11.6846C144.135 12.6937 144.696 14.7282 144.696 17.7881C144.696 25.7959 144.843 30.1172 145.136 30.752C145.429 31.3704 146.063 31.6715 147.04 31.6553C147.284 32.2412 147.406 32.8516 147.406 33.4863C147.406 34.0723 147.211 34.471 146.82 34.6826C146.446 34.8942 145.722 35 144.647 35C142.011 35 140.342 34.9593 139.643 34.8779C138.943 34.7965 138.463 34.5361 138.202 34.0967C137.942 33.641 137.812 32.8841 137.812 31.8262V23.208C137.812 19.8877 137.502 17.666 136.884 16.543C136.282 15.4036 135.297 14.834 133.93 14.834C132.774 14.834 131.863 15.1758 131.195 15.8594C130.528 16.5267 130.194 17.9346 130.194 20.083V24.9902C130.194 27.041 130.235 29.2627 130.316 31.6553H133.222C133.498 32.1924 133.637 32.7946 133.637 33.4619C133.637 34.0316 133.515 34.4303 133.271 34.6582C133.043 34.8861 132.587 35 131.903 35H120.404C120.111 34.3164 119.965 33.6735 119.965 33.0713C119.965 32.5667 120.079 32.2087 120.307 31.9971C120.535 31.7692 120.901 31.6553 121.405 31.6553H123.188C123.269 28.9697 123.31 26.1947 123.31 23.3301C123.31 18.7728 123.09 16.0791 122.65 15.249C122.227 14.4189 121.479 14.0039 120.404 14.0039C120.111 13.3529 119.965 12.7018 119.965 12.0508C119.965 11.4648 120.176 11.0824 120.6 10.9033C121.039 10.7243 123.733 10.5615 128.681 10.415C128.762 11.0986 128.762 12.0345 128.681 13.2227ZM167.23 14.4678C166.954 13.8981 166.815 13.2959 166.815 12.6611C166.815 12.0264 166.938 11.5706 167.182 11.2939C167.426 11.001 167.833 10.8545 168.402 10.8545H175.8C176.093 11.4079 176.239 11.9938 176.239 12.6123C176.239 13.3285 176.101 13.8167 175.824 14.0771C175.548 14.3376 175.059 14.4678 174.359 14.4678H174.213C173.66 15.6885 172.414 19.0983 170.478 24.6973C168.541 30.2799 167.23 33.4782 166.547 34.292C165.88 35.0895 164.708 35.4883 163.031 35.4883C160.395 35.4883 158.979 35.3581 158.783 35.0977C158.588 34.8372 157.717 32.1761 156.171 27.1143C154.625 22.0361 153.648 18.9274 153.241 17.7881C152.851 16.6325 152.533 15.7861 152.289 15.249C152.061 14.6956 151.785 14.3538 151.459 14.2236C151.133 14.0771 150.58 14.0039 149.799 14.0039C149.506 13.2552 149.359 12.5716 149.359 11.9531C149.359 11.3509 149.652 10.944 150.238 10.7324C150.84 10.5208 152.712 10.415 155.854 10.415C157.058 10.415 157.904 10.5127 158.393 10.708C158.897 10.9033 159.255 11.2614 159.467 11.7822C159.695 12.2868 159.963 13.4831 160.272 15.3711C160.582 17.2591 161.257 20.1725 162.299 24.1113C163.357 28.0501 163.992 30.0195 164.203 30.0195C164.431 30.0195 165.163 27.7897 166.4 23.3301C167.637 18.8704 168.354 15.9163 168.549 14.4678H167.23ZM194.33 33.1201C193.109 33.7386 191.718 34.292 190.155 34.7803C188.593 35.2523 187.12 35.4883 185.736 35.4883C183.376 35.4883 181.643 34.943 180.536 33.8525C179.446 32.762 178.9 31.2321 178.9 29.2627C178.9 26.512 179.844 24.4694 181.732 23.1348C183.62 21.8001 186.599 21.1328 190.668 21.1328H193.329C193.183 18.6263 192.768 16.9173 192.084 16.0059C191.4 15.0781 190.375 14.6143 189.008 14.6143C188.259 14.6143 187.445 14.7119 186.566 14.9072C185.997 15.9814 185.655 16.5511 185.541 16.6162C185.443 16.6813 184.882 16.8278 183.856 17.0557C182.847 17.2835 182.131 17.2103 181.708 16.8359C181.285 16.4616 180.854 15.8024 180.414 14.8584C179.991 13.9144 179.779 13.1169 179.779 12.4658C179.779 12.0589 179.942 11.7415 180.268 11.5137C180.609 11.2858 181.846 11.0417 183.979 10.7812C186.111 10.5208 188.381 10.3906 190.79 10.3906C193.655 10.3906 195.901 10.887 197.528 11.8799C199.156 12.8564 199.97 14.7607 199.97 17.5928V24.0625C199.97 27.6595 200.124 29.873 200.434 30.7031C200.743 31.5169 201.296 31.8343 202.094 31.6553C202.338 32.111 202.46 32.5586 202.46 32.998C202.46 33.7305 202.021 34.292 201.142 34.6826C200.279 35.057 199.107 35.2441 197.626 35.2441C196.975 35.2441 196.462 35.1628 196.088 35C195.714 34.8372 195.128 34.2106 194.33 33.1201ZM193.329 25.0146C192.157 24.7705 190.969 24.6484 189.765 24.6484C188.397 24.6484 187.421 24.8763 186.835 25.332C186.249 25.7878 185.956 26.6504 185.956 27.9199C185.956 29.0267 186.241 29.8649 186.811 30.4346C187.396 30.988 188.243 31.2646 189.35 31.2646C190.229 31.2646 191.002 31.0775 191.669 30.7031C192.353 30.3288 192.8 29.7998 193.012 29.1162C193.223 28.4163 193.329 27.513 193.329 26.4062V25.0146ZM217.938 10.1465C220.396 10.1465 222.292 10.3825 223.627 10.8545C224.962 11.3102 225.629 12.0833 225.629 13.1738C225.629 14.3294 225.165 15.5013 224.237 16.6895C220.722 15.1432 218.028 14.3701 216.156 14.3701C215.163 14.3701 214.423 14.5573 213.935 14.9316C213.463 15.306 213.227 15.8431 213.227 16.543C213.227 17.2754 213.544 17.9102 214.179 18.4473C214.83 18.9844 216.319 19.668 218.646 20.498C221.365 21.4258 223.293 22.443 224.433 23.5498C225.588 24.6566 226.166 26.1133 226.166 27.9199C226.166 30.3613 225.165 32.2331 223.163 33.5352C221.177 34.8372 218.484 35.4883 215.082 35.4883C211.941 35.4883 209.703 35.2767 208.368 34.8535C207.034 34.4141 206.358 33.5189 206.342 32.168C206.342 31.1589 206.741 30.166 207.538 29.1895C210.777 30.5729 213.65 31.2646 216.156 31.2646C217.182 31.2646 217.979 31.0938 218.549 30.752C219.118 30.4102 219.403 29.8405 219.403 29.043C219.403 28.1152 218.899 27.3747 217.89 26.8213C216.897 26.2679 215.294 25.568 213.08 24.7217C210.704 23.8102 209.003 22.8337 207.978 21.792C206.968 20.734 206.464 19.3831 206.464 17.7393C206.464 15.4281 207.473 13.5889 209.491 12.2217C211.526 10.8382 214.341 10.1465 217.938 10.1465ZM244.11 18.9844C246.617 18.9844 248.456 18.5368 249.628 17.6416C250.816 16.7464 251.41 15.1921 251.41 12.9785C251.41 10.8789 250.849 9.2513 249.726 8.0957C248.619 6.9401 246.894 6.3623 244.55 6.3623C243.573 6.3623 242.751 6.44368 242.084 6.60645C242.003 7.63184 241.962 10.5371 241.962 15.3223V18.9844H244.11ZM231.024 5.01953C230.748 4.30339 230.609 3.61979 230.609 2.96875C230.609 2.51302 230.723 2.1875 230.951 1.99219C231.195 1.7806 231.553 1.6748 232.025 1.6748H243.793C250.108 1.6748 254.356 2.43978 256.537 3.96973C258.718 5.4834 259.809 7.98177 259.809 11.4648C259.809 15.0456 258.49 17.8613 255.854 19.9121C253.217 21.9466 248.977 22.9639 243.134 22.9639H241.962C241.978 27.1794 242.019 30.0765 242.084 31.6553H246.088C246.365 32.2412 246.503 32.8434 246.503 33.4619C246.503 34.0316 246.397 34.4303 246.186 34.6582C245.974 34.8861 245.632 35 245.16 35H231C230.707 34.2839 230.561 33.5921 230.561 32.9248C230.561 32.4854 230.683 32.168 230.927 31.9727C231.171 31.7611 231.529 31.6553 232.001 31.6553H234.271C234.353 29.5719 234.394 24.1195 234.394 15.2979C234.394 10.529 234.353 7.10286 234.271 5.01953H231.024ZM277.045 33.1201C275.824 33.7386 274.433 34.292 272.87 34.7803C271.308 35.2523 269.835 35.4883 268.451 35.4883C266.091 35.4883 264.358 34.943 263.251 33.8525C262.16 32.762 261.615 31.2321 261.615 29.2627C261.615 26.512 262.559 24.4694 264.447 23.1348C266.335 21.8001 269.314 21.1328 273.383 21.1328H276.044C275.897 18.6263 275.482 16.9173 274.799 16.0059C274.115 15.0781 273.09 14.6143 271.723 14.6143C270.974 14.6143 270.16 14.7119 269.281 14.9072C268.712 15.9814 268.37 16.5511 268.256 16.6162C268.158 16.6813 267.597 16.8278 266.571 17.0557C265.562 17.2835 264.846 17.2103 264.423 16.8359C264 16.4616 263.568 15.8024 263.129 14.8584C262.706 13.9144 262.494 13.1169 262.494 12.4658C262.494 12.0589 262.657 11.7415 262.982 11.5137C263.324 11.2858 264.561 11.0417 266.693 10.7812C268.826 10.5208 271.096 10.3906 273.505 10.3906C276.369 10.3906 278.616 10.887 280.243 11.8799C281.871 12.8564 282.685 14.7607 282.685 17.5928V24.0625C282.685 27.6595 282.839 29.873 283.148 30.7031C283.458 31.5169 284.011 31.8343 284.809 31.6553C285.053 32.111 285.175 32.5586 285.175 32.998C285.175 33.7305 284.735 34.292 283.856 34.6826C282.994 35.057 281.822 35.2441 280.341 35.2441C279.69 35.2441 279.177 35.1628 278.803 35C278.428 34.8372 277.842 34.2106 277.045 33.1201ZM276.044 25.0146C274.872 24.7705 273.684 24.6484 272.479 24.6484C271.112 24.6484 270.136 24.8763 269.55 25.332C268.964 25.7878 268.671 26.6504 268.671 27.9199C268.671 29.0267 268.956 29.8649 269.525 30.4346C270.111 30.988 270.958 31.2646 272.064 31.2646C272.943 31.2646 273.716 31.0775 274.384 30.7031C275.067 30.3288 275.515 29.7998 275.727 29.1162C275.938 28.4163 276.044 27.513 276.044 26.4062V25.0146ZM297.333 13.2227C299.107 12.1159 300.808 11.3346 302.436 10.8789C304.079 10.4069 305.455 10.1709 306.562 10.1709C308.856 10.1709 310.557 10.6755 311.664 11.6846C312.787 12.6937 313.349 14.7282 313.349 17.7881C313.349 25.7959 313.495 30.1172 313.788 30.752C314.081 31.3704 314.716 31.6715 315.692 31.6553C315.937 32.2412 316.059 32.8516 316.059 33.4863C316.059 34.0723 315.863 34.471 315.473 34.6826C315.098 34.8942 314.374 35 313.3 35C310.663 35 308.995 34.9593 308.295 34.8779C307.595 34.7965 307.115 34.5361 306.854 34.0967C306.594 33.641 306.464 32.8841 306.464 31.8262V23.208C306.464 19.8877 306.155 17.666 305.536 16.543C304.934 15.4036 303.949 14.834 302.582 14.834C301.426 14.834 300.515 15.1758 299.848 15.8594C299.18 16.5267 298.847 17.9346 298.847 20.083V24.9902C298.847 27.041 298.887 29.2627 298.969 31.6553H301.874C302.151 32.1924 302.289 32.7946 302.289 33.4619C302.289 34.0316 302.167 34.4303 301.923 34.6582C301.695 34.8861 301.239 35 300.556 35H289.057C288.764 34.3164 288.617 33.6735 288.617 33.0713C288.617 32.5667 288.731 32.2087 288.959 31.9971C289.187 31.7692 289.553 31.6553 290.058 31.6553H291.84C291.921 28.9697 291.962 26.1947 291.962 23.3301C291.962 18.7728 291.742 16.0791 291.303 15.249C290.88 14.4189 290.131 14.0039 289.057 14.0039C288.764 13.3529 288.617 12.7018 288.617 12.0508C288.617 11.4648 288.829 11.0824 289.252 10.9033C289.691 10.7243 292.385 10.5615 297.333 10.415C297.414 11.0986 297.414 12.0345 297.333 13.2227ZM330.805 14.3701C329.6 14.3701 328.681 14.8584 328.046 15.835C327.411 16.8115 327.086 18.5124 327.069 20.9375H328.363C330.17 20.9375 331.545 20.8887 332.489 20.791C333.45 20.6771 334.011 20.498 334.174 20.2539C334.337 19.9935 334.418 19.5703 334.418 18.9844C334.418 17.5195 334.101 16.3883 333.466 15.5908C332.831 14.777 331.944 14.3701 330.805 14.3701ZM331.781 10.1465C335.167 10.1465 337.624 10.9196 339.154 12.4658C340.684 13.9958 341.449 16.4209 341.449 19.7412C341.449 21.3851 341.124 22.557 340.473 23.2568C339.822 23.9567 338.397 24.3066 336.2 24.3066H327.118C327.167 26.4388 327.647 28.1152 328.559 29.3359C329.47 30.5404 331.073 31.1426 333.368 31.1426C335.614 31.1426 337.925 30.4915 340.302 29.1895C341.148 30.0195 341.571 30.9147 341.571 31.875C341.571 33.1771 340.611 34.0885 338.69 34.6094C336.786 35.1139 334.548 35.3662 331.977 35.3662C327.549 35.3662 324.335 34.471 322.333 32.6807C320.331 30.8903 319.33 27.9362 319.33 23.8184C319.33 19.5378 320.453 16.193 322.699 13.7842C324.962 11.359 327.989 10.1465 331.781 10.1465ZM348.163 23.2324C348.163 15.8431 348.131 11.2044 348.065 9.31641C348 7.42839 347.878 6.14258 347.699 5.45898C347.52 4.75911 347.203 4.31152 346.747 4.11621C346.308 3.90462 345.73 3.79883 345.014 3.79883C344.721 3.13151 344.574 2.46419 344.574 1.79688C344.574 1.11328 344.826 0.681966 345.331 0.50293C345.852 0.307617 347.496 0.209961 350.263 0.209961C351.988 0.209961 353.168 0.283203 353.803 0.429688C354.438 0.559896 354.796 0.812174 354.877 1.18652C354.975 1.56087 355.023 2.08984 355.023 2.77344V21.5479C355.023 26.2028 355.064 29.5719 355.146 31.6553H358.271C358.547 32.1924 358.686 32.7946 358.686 33.4619C358.686 34.0316 358.563 34.4303 358.319 34.6582C358.091 34.8861 357.636 35 356.952 35H345.014C344.721 34.3164 344.574 33.6735 344.574 33.0713C344.574 32.5667 344.688 32.2087 344.916 31.9971C345.144 31.7692 345.51 31.6553 346.015 31.6553H348.017C348.114 29.5719 348.163 26.7643 348.163 23.2324ZM373.163 10.1465C375.621 10.1465 377.517 10.3825 378.852 10.8545C380.186 11.3102 380.854 12.0833 380.854 13.1738C380.854 14.3294 380.39 15.5013 379.462 16.6895C375.946 15.1432 373.253 14.3701 371.381 14.3701C370.388 14.3701 369.647 14.5573 369.159 14.9316C368.687 15.306 368.451 15.8431 368.451 16.543C368.451 17.2754 368.769 17.9102 369.403 18.4473C370.054 18.9844 371.544 19.668 373.871 20.498C376.589 21.4258 378.518 22.443 379.657 23.5498C380.813 24.6566 381.391 26.1133 381.391 27.9199C381.391 30.3613 380.39 32.2331 378.388 33.5352C376.402 34.8372 373.708 35.4883 370.307 35.4883C367.165 35.4883 364.927 35.2767 363.593 34.8535C362.258 34.4141 361.583 33.5189 361.566 32.168C361.566 31.1589 361.965 30.166 362.763 29.1895C366.002 30.5729 368.874 31.2646 371.381 31.2646C372.406 31.2646 373.204 31.0938 373.773 30.752C374.343 30.4102 374.628 29.8405 374.628 29.043C374.628 28.1152 374.123 27.3747 373.114 26.8213C372.121 26.2679 370.518 25.568 368.305 24.7217C365.928 23.8102 364.228 22.8337 363.202 21.792C362.193 20.734 361.688 19.3831 361.688 17.7393C361.688 15.4281 362.698 13.5889 364.716 12.2217C366.75 10.8382 369.566 10.1465 373.163 10.1465Z" fill="#EC7574"/>
<path d="M399.921 19.4727C400.214 20.1888 400.36 21.1247 400.36 22.2803C400.36 23.0778 400.214 23.6475 399.921 23.9893C399.644 24.3148 399.156 24.4775 398.456 24.4775H385.98C385.688 23.5986 385.541 22.6546 385.541 21.6455C385.541 20.7666 385.688 20.1888 385.98 19.9121C386.273 19.6191 386.672 19.4727 387.177 19.4727H399.921ZM403.998 12.0508C403.998 11.4648 404.21 11.0824 404.633 10.9033C405.072 10.7243 407.766 10.5615 412.714 10.415C412.795 11.0986 412.795 12.0426 412.714 13.2471C414.765 12.0426 416.62 11.2288 418.28 10.8057C419.94 10.3825 421.405 10.1709 422.675 10.1709C423.261 10.1709 423.651 10.2441 423.847 10.3906C424.042 10.5208 424.14 10.8382 424.14 11.3428C424.14 12.238 424.001 13.1738 423.725 14.1504C423.464 15.1107 423.131 15.7292 422.724 16.0059C422.333 16.2826 421.706 16.486 420.844 16.6162C419.981 16.7464 419.477 16.779 419.33 16.7139C419.2 16.6488 418.744 16.1035 417.963 15.0781C416.758 15.0781 415.831 15.5176 415.18 16.3965C414.545 17.2591 414.228 19.4971 414.228 23.1104C414.228 26.4144 414.268 29.2627 414.35 31.6553H418.183C418.476 32.1924 418.622 32.7946 418.622 33.4619C418.622 34.0316 418.5 34.4303 418.256 34.6582C418.028 34.8861 417.572 35 416.889 35H404.438C404.145 34.3164 403.998 33.6735 403.998 33.0713C403.998 32.5667 404.112 32.2087 404.34 31.9971C404.568 31.7692 404.934 31.6553 405.438 31.6553H407.221C407.302 29.2627 407.343 26.4876 407.343 23.3301C407.343 18.7728 407.123 16.0791 406.684 15.249C406.26 14.4189 405.512 14.0039 404.438 14.0039C404.145 13.3529 403.998 12.7018 403.998 12.0508ZM438.227 14.3701C437.022 14.3701 436.103 14.8584 435.468 15.835C434.833 16.8115 434.507 18.5124 434.491 20.9375H435.785C437.592 20.9375 438.967 20.8887 439.911 20.791C440.871 20.6771 441.433 20.498 441.596 20.2539C441.758 19.9935 441.84 19.5703 441.84 18.9844C441.84 17.5195 441.522 16.3883 440.888 15.5908C440.253 14.777 439.366 14.3701 438.227 14.3701ZM439.203 10.1465C442.589 10.1465 445.046 10.9196 446.576 12.4658C448.106 13.9958 448.871 16.4209 448.871 19.7412C448.871 21.3851 448.546 22.557 447.895 23.2568C447.243 23.9567 445.819 24.3066 443.622 24.3066H434.54C434.589 26.4388 435.069 28.1152 435.98 29.3359C436.892 30.5404 438.495 31.1426 440.79 31.1426C443.036 31.1426 445.347 30.4915 447.724 29.1895C448.57 30.0195 448.993 30.9147 448.993 31.875C448.993 33.1771 448.033 34.0885 446.112 34.6094C444.208 35.1139 441.97 35.3662 439.398 35.3662C434.971 35.3662 431.757 34.471 429.755 32.6807C427.753 30.8903 426.752 27.9362 426.752 23.8184C426.752 19.5378 427.875 16.193 430.121 13.7842C432.383 11.359 435.411 10.1465 439.203 10.1465ZM468.061 33.1201C466.84 33.7386 465.448 34.292 463.886 34.7803C462.323 35.2523 460.85 35.4883 459.467 35.4883C457.107 35.4883 455.373 34.943 454.267 33.8525C453.176 32.762 452.631 31.2321 452.631 29.2627C452.631 26.512 453.575 24.4694 455.463 23.1348C457.351 21.8001 460.329 21.1328 464.398 21.1328H467.06C466.913 18.6263 466.498 16.9173 465.814 16.0059C465.131 15.0781 464.105 14.6143 462.738 14.6143C461.99 14.6143 461.176 14.7119 460.297 14.9072C459.727 15.9814 459.385 16.5511 459.271 16.6162C459.174 16.6813 458.612 16.8278 457.587 17.0557C456.578 17.2835 455.862 17.2103 455.438 16.8359C455.015 16.4616 454.584 15.8024 454.145 14.8584C453.721 13.9144 453.51 13.1169 453.51 12.4658C453.51 12.0589 453.673 11.7415 453.998 11.5137C454.34 11.2858 455.577 11.0417 457.709 10.7812C459.841 10.5208 462.112 10.3906 464.521 10.3906C467.385 10.3906 469.631 10.887 471.259 11.8799C472.886 12.8564 473.7 14.7607 473.7 17.5928V24.0625C473.7 27.6595 473.855 29.873 474.164 30.7031C474.473 31.5169 475.027 31.8343 475.824 31.6553C476.068 32.111 476.19 32.5586 476.19 32.998C476.19 33.7305 475.751 34.292 474.872 34.6826C474.009 35.057 472.838 35.2441 471.356 35.2441C470.705 35.2441 470.193 35.1628 469.818 35C469.444 34.8372 468.858 34.2106 468.061 33.1201ZM467.06 25.0146C465.888 24.7705 464.7 24.6484 463.495 24.6484C462.128 24.6484 461.151 24.8763 460.565 25.332C459.979 25.7878 459.687 26.6504 459.687 27.9199C459.687 29.0267 459.971 29.8649 460.541 30.4346C461.127 30.988 461.973 31.2646 463.08 31.2646C463.959 31.2646 464.732 31.0775 465.399 30.7031C466.083 30.3288 466.531 29.7998 466.742 29.1162C466.954 28.4163 467.06 27.513 467.06 26.4062V25.0146ZM491.767 35.4883C487.258 35.4883 484.109 34.6582 482.318 32.998C480.528 31.3216 479.633 28.457 479.633 24.4043C479.633 19.847 480.797 16.3314 483.124 13.8574C485.468 11.3835 488.959 10.1465 493.598 10.1465C496.039 10.1465 497.724 10.3581 498.651 10.7812C499.595 11.2044 500.084 11.9124 500.116 12.9053C500.116 14.1748 499.717 15.3304 498.92 16.3721C496.218 15.0374 494.021 14.3701 492.328 14.3701C490.635 14.3701 489.382 14.9723 488.568 16.1768C487.771 17.3649 487.372 19.4645 487.372 22.4756C487.372 25.4541 487.763 27.6676 488.544 29.1162C489.341 30.5485 490.782 31.2646 492.865 31.2646C494.558 31.2646 496.731 30.638 499.384 29.3848C500.067 30.3288 500.409 31.3216 500.409 32.3633C500.409 33.4212 499.547 34.2106 497.821 34.7314C496.096 35.236 494.078 35.4883 491.767 35.4883ZM506.293 10.8545L508.71 3.50586C509.54 3.75 510.305 4.06738 511.005 4.45801C511.721 4.84863 512.258 5.29622 512.616 5.80078C512.991 6.30534 513.178 7.55046 513.178 9.53613V10.8545H521.43C521.706 11.5055 521.845 12.1973 521.845 12.9297C521.845 13.5482 521.731 13.9632 521.503 14.1748C521.275 14.3864 520.836 14.4922 520.185 14.4922H513.178V24.1357C513.178 26.9352 513.414 28.8395 513.886 29.8486C514.358 30.8577 515.139 31.3867 516.229 31.4355C517.336 31.4681 518.679 31.0775 520.258 30.2637C520.73 30.8984 520.966 31.6227 520.966 32.4365C520.966 33.5433 520.38 34.292 519.208 34.6826C518.052 35.057 516.246 35.2441 513.788 35.2441C511.103 35.2441 509.182 34.707 508.026 33.6328C506.887 32.5586 506.317 30.4753 506.317 27.3828V23.1348C506.317 20.4492 506.236 17.5684 506.073 14.4922H503.583C503.29 13.7923 503.144 13.0843 503.144 12.3682C503.144 11.8148 503.249 11.4242 503.461 11.1963C503.689 10.9684 504.063 10.8545 504.584 10.8545H506.293ZM534.613 14.6875C534.613 20.498 534.63 24.7624 534.662 27.4805C534.695 30.1823 534.711 32.9167 534.711 35.6836C534.711 37.9948 534.385 39.834 533.734 41.2012C533.083 42.5684 532.042 43.667 530.609 44.4971C529.193 45.3271 527.175 45.7422 524.555 45.7422C522.813 45.7422 521.609 45.6201 520.941 45.376C520.258 45.1318 519.916 44.5052 519.916 43.4961C519.916 42.4219 520.274 41.4128 520.99 40.4688C523.708 41.2826 525.507 41.5267 526.386 41.2012C527.281 40.8757 527.729 38.8086 527.729 35V24.9902C527.729 21.3932 527.696 19.0088 527.631 17.8369C527.582 16.665 527.46 15.8024 527.265 15.249C527.069 14.6956 526.752 14.3538 526.312 14.2236C525.873 14.0771 525.295 14.0039 524.579 14.0039C524.302 13.5482 524.164 13.0192 524.164 12.417C524.164 11.6683 524.449 11.1475 525.019 10.8545C525.588 10.5615 527.354 10.415 530.316 10.415C531.977 10.415 533.067 10.4964 533.588 10.6592C534.109 10.8219 534.41 11.1312 534.491 11.5869C534.573 12.0264 534.613 13.0599 534.613 14.6875ZM529.853 7.24121C528.388 7.24121 527.33 6.96452 526.679 6.41113C526.028 5.84147 525.702 5.04395 525.702 4.01855C525.718 2.94434 526.133 2.06543 526.947 1.38184C527.777 0.681966 528.957 0.332031 530.487 0.332031C532.05 0.332031 533.157 0.633138 533.808 1.23535C534.459 1.82129 534.784 2.5944 534.784 3.55469C534.784 4.61263 534.394 5.49154 533.612 6.19141C532.831 6.89128 531.578 7.24121 529.853 7.24121ZM552.313 10.1465C554.771 10.1465 556.667 10.3825 558.002 10.8545C559.337 11.3102 560.004 12.0833 560.004 13.1738C560.004 14.3294 559.54 15.5013 558.612 16.6895C555.097 15.1432 552.403 14.3701 550.531 14.3701C549.538 14.3701 548.798 14.5573 548.31 14.9316C547.838 15.306 547.602 15.8431 547.602 16.543C547.602 17.2754 547.919 17.9102 548.554 18.4473C549.205 18.9844 550.694 19.668 553.021 20.498C555.74 21.4258 557.668 22.443 558.808 23.5498C559.963 24.6566 560.541 26.1133 560.541 27.9199C560.541 30.3613 559.54 32.2331 557.538 33.5352C555.552 34.8372 552.859 35.4883 549.457 35.4883C546.316 35.4883 544.078 35.2767 542.743 34.8535C541.409 34.4141 540.733 33.5189 540.717 32.168C540.717 31.1589 541.116 30.166 541.913 29.1895C545.152 30.5729 548.025 31.2646 550.531 31.2646C551.557 31.2646 552.354 31.0938 552.924 30.752C553.493 30.4102 553.778 29.8405 553.778 29.043C553.778 28.1152 553.274 27.3747 552.265 26.8213C551.272 26.2679 549.669 25.568 547.455 24.7217C545.079 23.8102 543.378 22.8337 542.353 21.792C541.343 20.734 540.839 19.3831 540.839 17.7393C540.839 15.4281 541.848 13.5889 543.866 12.2217C545.901 10.8382 548.716 10.1465 552.313 10.1465Z" fill="#61DAFB"/>
</g>
</svg>
